{
  "source": "C:\\Users\\Peter\\Desktop\\stuff\\MIUN\\quantitative_research\\video_compression\\videos\\UVG\\ShakeNDry_1920x1080_120fps_420_8bit_YUV.y4m",
  "output": "C:\\Users\\Peter\\Desktop\\stuff\\MIUN\\quantitative_research\\video_compression\\compressed_videos\\UVG\\vp9\\2.5\\ShakeNDry_1920x1080_120fps_420_8bit_YUV_vp9.webm",
  "codec": "vp9",
  "ok": "[yuv4mpegpipe @ 0000022bff7d53c0] Stream #0: not enough frames to estimate rate; consider increasing probesize\nInput #0, yuv4mpegpipe, from 'C:\\Users\\Peter\\Desktop\\stuff\\MIUN\\quantitative_research\\video_compression\\videos\\UVG\\ShakeNDry_1920x1080_120fps_420_8bit_YUV.y4m':\n  Duration: 00:00:02.50, start: 0.000000, bitrate: 2985989 kb/s\n  Stream #0:0: Video: rawvideo (I420 / 0x30323449), yuv420p(progressive), 1920x1080, 120 fps, 120 tbr, 120 tbn\n[out#0/webm @ 0000022bff7d9040] Codec AVOption b:a (set bitrate (in bits/s)) has not been used for any stream. The most likely reason is either wrong type (e.g. a video option with no video streams) or that it is a private option of some decoder which was not actually used for any stream.\nStream mapping:\n  Stream #0:0 -> #0:0 (rawvideo (native) -> vp9 (libvpx-vp9))\nPress [q] to stop, [?] for help\n[libvpx-vp9 @ 0000022bff7dc100] v1.15.2-100-g40561f514\nOutput #0, webm, to 'C:\\Users\\Peter\\Desktop\\stuff\\MIUN\\quantitative_research\\video_compression\\compressed_videos\\UVG\\vp9\\2.5\\ShakeNDry_1920x1080_120fps_420_8bit_YUV_vp9.webm':\n  Metadata:\n    encoder         : Lavf62.3.100\n  Stream #0:0: Video: vp9, yuv420p(tv, progressive), 1920x1080, q=2-31, 2500 kb/s, 120 fps, 1k tbn\n    Metadata:\n      encoder         : Lavc62.11.100 libvpx-vp9\n    Side data:\n      cpb: bitrate max/min/avg: 0/0/0 buffer size: 2500000 vbv_delay: N/A\nframe=    3 fps=0.0 q=60.0 size=       0KiB time=00:00:00.02 bitrate= 153.9kbits/s speed=0.0484x elapsed=0:00:00.51    \nframe=   10 fps=9.8 q=58.0 size=       0KiB time=00:00:00.08 bitrate=  46.2kbits/s speed=0.0813x elapsed=0:00:01.02    \nframe=   17 fps= 11 q=58.0 size=       0KiB time=00:00:00.14 bitrate=  27.2kbits/s speed=0.0909x elapsed=0:00:01.55    \nframe=   23 fps= 11 q=58.0 size=       0KiB time=00:00:00.19 bitrate=  20.1kbits/s speed=0.0923x elapsed=0:00:02.07    \nframe=   30 fps= 12 q=58.0 size=       0KiB time=00:00:00.25 bitrate=  15.4kbits/s speed=0.0961x elapsed=0:00:02.60    \nframe=   35 fps= 11 q=58.0 size=       0KiB time=00:00:00.29 bitrate=  13.2kbits/s speed=0.0933x elapsed=0:00:03.12    \nframe=   42 fps= 12 q=58.0 size=       0KiB time=00:00:00.35 bitrate=  11.0kbits/s speed=0.096x elapsed=0:00:03.64    \nframe=   46 fps= 11 q=43.0 size=       0KiB time=00:00:00.38 bitrate=  10.0kbits/s speed=0.0922x elapsed=0:00:04.15    \nframe=   53 fps= 11 q=59.0 size=       0KiB time=00:00:00.44 bitrate=   8.7kbits/s speed=0.0944x elapsed=0:00:04.67    \nframe=   60 fps= 12 q=58.0 size=       0KiB time=00:00:00.50 bitrate=   7.7kbits/s speed=0.0963x elapsed=0:00:05.19    \nframe=   66 fps= 12 q=58.0 size=       0KiB time=00:00:00.55 bitrate=   7.0kbits/s speed=0.0962x elapsed=0:00:05.71    \nframe=   73 fps= 12 q=58.0 size=       0KiB time=00:00:00.60 bitrate=   6.3kbits/s speed=0.0976x elapsed=0:00:06.23    \nframe=   78 fps= 12 q=58.0 size=       0KiB time=00:00:00.65 bitrate=   5.9kbits/s speed=0.0964x elapsed=0:00:06.74    \nframe=   86 fps= 12 q=58.0 size=       0KiB time=00:00:00.71 bitrate=   5.4kbits/s speed=0.0987x elapsed=0:00:07.26    \nframe=   91 fps= 12 q=41.0 size=       0KiB time=00:00:00.75 bitrate=   5.1kbits/s speed=0.0975x elapsed=0:00:07.77    \nframe=   99 fps= 12 q=57.0 size=       0KiB time=00:00:00.82 bitrate=   4.7kbits/s speed=0.0995x elapsed=0:00:08.29    \nframe=  105 fps= 12 q=56.0 size=       0KiB time=00:00:00.87 bitrate=   4.4kbits/s speed=0.0992x elapsed=0:00:08.81    \nframe=  112 fps= 12 q=56.0 size=       0KiB time=00:00:00.93 bitrate=   4.1kbits/s speed= 0.1x elapsed=0:00:09.33    \nframe=  117 fps= 12 q=41.0 size=       0KiB time=00:00:00.97 bitrate=   3.9kbits/s speed=0.099x elapsed=0:00:09.84    \nframe=  125 fps= 12 q=56.0 size=       0KiB time=00:00:01.04 bitrate=   3.7kbits/s speed=0.101x elapsed=0:00:10.36    \nframe=  131 fps= 12 q=55.0 size=     256KiB time=00:00:01.09 bitrate=1921.1kbits/s speed= 0.1x elapsed=0:00:10.87    \nframe=  140 fps= 12 q=53.0 size=     256KiB time=00:00:01.16 bitrate=1797.6kbits/s speed=0.102x elapsed=0:00:11.39    \nframe=  146 fps= 12 q=51.0 size=     256KiB time=00:00:01.21 bitrate=1723.7kbits/s speed=0.102x elapsed=0:00:11.91    \nframe=  154 fps= 12 q=50.0 size=     256KiB time=00:00:01.28 bitrate=1634.1kbits/s speed=0.103x elapsed=0:00:12.44    \nframe=  160 fps= 12 q=49.0 size=     256KiB time=00:00:01.33 bitrate=1572.9kbits/s speed=0.103x elapsed=0:00:12.98    \nframe=  167 fps= 12 q=48.0 size=     256KiB time=00:00:01.39 bitrate=1506.9kbits/s speed=0.103x elapsed=0:00:13.49    \nframe=  173 fps= 12 q=48.0 size=     256KiB time=00:00:01.44 bitrate=1454.7kbits/s speed=0.103x elapsed=0:00:14.02    \nframe=  180 fps= 12 q=50.0 size=     256KiB time=00:00:01.50 bitrate=1398.1kbits/s speed=0.103x elapsed=0:00:14.55    \nframe=  188 fps= 12 q=51.0 size=     256KiB time=00:00:01.56 bitrate=1338.6kbits/s speed=0.104x elapsed=0:00:15.08    \nframe=  195 fps= 12 q=50.0 size=     256KiB time=00:00:01.62 bitrate=1290.6kbits/s speed=0.104x elapsed=0:00:15.61    \nframe=  203 fps= 13 q=50.0 size=     256KiB time=00:00:01.69 bitrate=1239.7kbits/s speed=0.105x elapsed=0:00:16.14    \nframe=  209 fps= 13 q=50.0 size=     256KiB time=00:00:01.74 bitrate=1204.1kbits/s speed=0.104x elapsed=0:00:16.66    \nframe=  217 fps= 13 q=51.0 size=     256KiB time=00:00:01.80 bitrate=1159.7kbits/s speed=0.105x elapsed=0:00:17.18    \nframe=  224 fps= 13 q=48.0 size=     256KiB time=00:00:01.86 bitrate=1123.5kbits/s speed=0.105x elapsed=0:00:17.70    \nframe=  232 fps= 13 q=48.0 size=     256KiB time=00:00:01.93 bitrate=1084.7kbits/s speed=0.106x elapsed=0:00:18.23    \nframe=  238 fps= 13 q=49.0 size=     256KiB time=00:00:01.98 bitrate=1057.4kbits/s speed=0.106x elapsed=0:00:18.76    \nframe=  244 fps= 13 q=48.0 size=     256KiB time=00:00:02.03 bitrate=1031.4kbits/s speed=0.105x elapsed=0:00:19.28    \nframe=  251 fps= 13 q=46.0 size=     256KiB time=00:00:02.09 bitrate=1002.6kbits/s speed=0.106x elapsed=0:00:19.79    \nframe=  257 fps= 13 q=34.0 size=     256KiB time=00:00:02.14 bitrate= 979.2kbits/s speed=0.105x elapsed=0:00:20.31    \nframe=  265 fps= 13 q=45.0 size=     512KiB time=00:00:02.20 bitrate=1899.3kbits/s speed=0.106x elapsed=0:00:20.82    \nframe=  272 fps= 13 q=31.0 size=     512KiB time=00:00:02.26 bitrate=1850.4kbits/s speed=0.106x elapsed=0:00:21.34    \nframe=  276 fps= 13 q=43.0 size=     512KiB time=00:00:02.30 bitrate=1823.6kbits/s speed=0.105x elapsed=0:00:21.85    \nframe=  276 fps= 12 q=43.0 size=     512KiB time=00:00:02.30 bitrate=1823.6kbits/s speed=0.103x elapsed=0:00:22.38    \nframe=  276 fps= 12 q=43.0 size=     512KiB time=00:00:02.30 bitrate=1823.6kbits/s speed= 0.1x elapsed=0:00:22.90    \nframe=  276 fps= 12 q=43.0 size=     512KiB time=00:00:02.30 bitrate=1823.6kbits/s speed=0.0981x elapsed=0:00:23.43    \n[out#0/webm @ 0000022bff7d9040] video:798KiB audio:0KiB subtitle:0KiB other streams:0KiB global headers:0KiB muxing overhead: 0.327957%\nframe=  300 fps= 13 q=27.0 Lsize=     801KiB time=00:00:02.50 bitrate=2624.5kbits/s speed=0.106x elapsed=0:00:23.48    \n",
  "seconds": 23.614806652069092,
  "probe_out": {}
}